<?xml version="1.0" encoding="UTF-8" standalone="no"?>
<!-- Generator: Adobe Illustrator 18.1.1, SVG Export Plug-In . SVG Version: 6.00 Build 0)  -->

<svg
   xmlns:dc="http://purl.org/dc/elements/1.1/"
   xmlns:cc="http://creativecommons.org/ns#"
   xmlns:rdf="http://www.w3.org/1999/02/22-rdf-syntax-ns#"
   xmlns:svg="http://www.w3.org/2000/svg"
   xmlns="http://www.w3.org/2000/svg"
   xmlns:sodipodi="http://sodipodi.sourceforge.net/DTD/sodipodi-0.dtd"
   xmlns:inkscape="http://www.inkscape.org/namespaces/inkscape"
   version="1.1"
   x="0px"
   y="0px"
   viewBox="0 0 400 400"
   enable-background="new 0 0 567 425"
   xml:space="preserve"
   id="svg2"
   inkscape:version="0.48.4 r9939"
   width="100%"
   height="100%"
   sodipodi:docname="logo.svg"><metadata
   id="metadata24"><rdf:RDF><cc:Work
       rdf:about=""><dc:format>image/svg+xml</dc:format><dc:type
         rdf:resource="http://purl.org/dc/dcmitype/StillImage" /><dc:title /></cc:Work></rdf:RDF></metadata><defs
   id="defs22" /><sodipodi:namedview
   pagecolor="#838383"
   bordercolor="#666666"
   borderopacity="1"
   objecttolerance="10"
   gridtolerance="10"
   guidetolerance="10"
   inkscape:pageopacity="0.43137255"
   inkscape:pageshadow="2"
   inkscape:window-width="1482"
   inkscape:window-height="795"
   id="namedview20"
   showgrid="false"
   inkscape:zoom="1.2012903"
   inkscape:cx="70.230332"
   inkscape:cy="188.62024"
   inkscape:window-x="0"
   inkscape:window-y="0"
   inkscape:window-maximized="0"
   inkscape:current-layer="svg2" />
<g
   id="Layer_6"
   display="none"
   style="display:none"
   transform="translate(0,-25)">
	<rect
   x="-98.800003"
   y="-118"
   display="inline"
   stroke-miterlimit="10"
   width="767"
   height="662"
   id="rect5"
   style="fill:#a0509f;stroke:#ffffff;stroke-miterlimit:10;display:inline" />
</g>
<g
   id="Side"
   transform="matrix(1.4765554,0,0,1.3300829,-229.70804,-84.436014)"
   style="stroke-width:4.09999990000000030;stroke-miterlimit:4;stroke-dasharray:none;fill:#ffffff;fill-opacity:1;stroke:none">
	<path
   stroke-miterlimit="10"
   d="m 169.6,352.1 v -5.8 c 5.1,1.8 10.5,2.7 16.4,2.7 8.3,0 12.5,-3 12.5,-9.1 0,-5.2 -3.1,-7.8 -9.2,-7.8 h -6.2 c -10.1,0 -15.2,-4.4 -15.2,-13.2 0,-9.2 6.5,-13.8 19.4,-13.8 5.6,0 10.9,0.7 15.7,2 v 5.7 c -4.8,-1.8 -10.1,-2.7 -15.7,-2.7 -8.8,0 -13.2,2.9 -13.2,8.8 0,5.2 3,7.8 8.9,7.8 h 6.2 c 10.3,0 15.4,4.4 15.4,13.2 0,9.4 -6.2,14.2 -18.7,14.2 -5.7,0 -11.2,-0.6 -16.3,-2 l 0,0 z m 47.1,-33.7 v 35.4 h -6.2 v -35.4 h 6.2 l 0,0 z m 0,-12.9 v 5.9 h -6.2 v -5.9 h 6.2 l 0,0 z m 31.3,20.1 c -2.5,-1.2 -5.4,-1.8 -8.6,-1.8 -7.1,0 -10.7,3.8 -10.7,11.4 0,9 3.6,13.5 10.7,13.5 3.2,0 6.1,-0.4 8.6,-1.3 v -21.8 l 0,0 z m 6.2,26.1 c -4.3,1.4 -9.6,2.1 -15.9,2.1 -10.6,0 -15.8,-6.1 -15.8,-18.4 0,-11.3 5.6,-17 16.8,-17 3.1,0 6,0.6 8.7,1.7 v -14.5 h 6.2 v 46.1 l 0,0 z m 21.4,-33.3 c 10.1,0 15.1,5 15.1,15 0,1.4 -0.1,2.9 -0.3,4.6 h -24.9 c 0,7.2 4.2,10.9 12.7,10.9 4,0 7.6,-0.5 10.7,-1.4 v 5.1 c -3.1,0.9 -6.9,1.3 -11.4,1.3 -12.2,0 -18.3,-6 -18.3,-18.1 0.1,-11.7 5.5,-17.4 16.4,-17.4 l 0,0 z m -10.1,14.3 h 19.2 c -0.1,-6.2 -3.2,-9.3 -9.1,-9.3 -6.3,-0.1 -9.7,3.1 -10.1,9.3 z"
   id="path8"
   style="fill:#ffffff;stroke:none;stroke-width:4.09999990000000030;stroke-miterlimit:4;stroke-dasharray:none;fill-opacity:1"
   inkscape:connector-curvature="0" />
</g>
<g
   id="Background"
   transform="translate(0,-25)">
</g>
<g
   id="Box"
   style="fill:#ffffff;fill-opacity:1;stroke:none"
   transform="matrix(1.6733106,0,0,1.4386762,-290.93712,-123.3943)">
	<path
   d="m 307.6,345.9 c 2,0.7 4.4,1 7.1,1 5.4,0 8.1,-3.8 8.1,-11.4 0,-6.2 -2.3,-9.4 -7,-9.4 -3,0 -5.8,0.6 -8.2,1.8 v 18 l 0,0 z m -8.9,-40.1 h 9 v 15.5 c 2.7,-1.8 5.7,-2.7 8.9,-2.7 10.1,0 15.1,5.7 15.1,17 0,12.3 -5.8,18.4 -17.3,18.4 -4.9,0 -10.1,-0.5 -15.7,-1.5 v -46.7 l 0,0 z m 44,30.4 c 0,7.4 2.9,11.1 8.6,11.1 5.7,0 8.6,-3.7 8.6,-11.1 0,-7.2 -2.9,-10.8 -8.6,-10.8 -5.8,0 -8.6,3.6 -8.6,10.8 l 0,0 z m -9,0.1 c 0,-11.9 5.9,-17.8 17.5,-17.8 11.7,0 17.6,5.9 17.6,17.8 0,11.9 -5.9,17.8 -17.6,17.8 -11.6,0 -17.4,-5.9 -17.5,-17.8 l 0,0 z m 47.9,0 -13.3,17.7 h 10 l 8.3,-11.1 8.3,11.1 h 10 l -13.2,-17.7 13.2,-17.7 h -10 l -8.3,11.1 -8.3,-11.1 h -10 l 13.3,17.7 z"
   id="path12"
   style="fill:#ffffff;fill-opacity:1;stroke:none"
   inkscape:connector-curvature="0" />
</g>
<g
   id="Kangaroo"
   transform="matrix(1.2950847,0,0,1.3300829,-182.8113,-84.436014)">
	<path
   clip-rule="evenodd"
   stroke-miterlimit="10"
   d="m 295.4,190.5 c 31.9,-5.2 46.3,46.9 1.2,54.7 -1.1,4.4 0.9,7.1 4.7,7.7 l 47.8,7.5 c 12,1.9 20.5,14 11.9,22.8 l -94.2,-28.6 c 0.1,-3.1 2.9,-6.1 5.1,-6.7 l 5.5,-1.6 c -84.9,3.5 -120.2,-108.7 -26.6,-138.4 4.9,-1.5 5.8,4.1 1.7,5.3 -32.6,7.3 -60.6,65.9 -15.2,82 L 313.4,93.1 c -16.2,2.8 -21.5,-11.8 -18.7,-22.5 6.5,6.8 15.5,12 26.3,16 6.2,-4 10.6,-9.9 13.4,-15.9 1.8,3.8 2.4,11.9 -1.9,18.4 l -8.3,-1.2 18.6,8.6 4,7.8 18.1,8 c -4.5,10.3 -9.2,11.7 -17.1,11.6 l -12.3,0 c -6.6,0 -12.2,7.1 -12.2,12.9 l -0.1,35.9 c -10,-3.2 -17.1,-6.3 -20.7,-12.8 0.1,8.4 8.7,13.2 21,17.4 l 47,15.8 -9.1,25 c -4.9,13.5 -15,16.3 -32.3,11.3 7.7,-26.7 -11.6,-44.9 -33.7,-38.9 z"
   id="path15"
   inkscape:connector-curvature="0"
   style="fill:none;stroke:#ffffff;stroke-width:6.09539066999999960;stroke-miterlimit:10;stroke-dasharray:none;stroke-linejoin:round" />
</g>
<g
   id="White_Box"
   transform="matrix(1.2950847,0,0,1.3300829,-182.8113,-84.436014)">
	<path
   clip-rule="evenodd"
   d="m 341.5,143.9 32.3,10.7 c 2.6,0.9 4.1,3.7 3.2,6.4 l -8.9,27.1 -41.9,-13.8 8.9,-27.1 c 0.9,-2.7 3.7,-4.2 6.4,-3.3 z"
   id="path18"
   inkscape:connector-curvature="0"
   style="fill:#ffffff;fill-rule:evenodd" />
</g>
</svg>